Coordinates
version=1
nRows=43
nColumns=12
inDegrees=yes

Units are S.I. units (second, meters, Newtons, ...)
Angles are in degrees

endheader
time	SC_y	SC_z	SC_x	AC_y	AC_z	AC_x	GH_y	GH_z	GH_yy	EL_x	PS_y
       0.0              -11.46          -3.39           49.3          31.88         -13.02          6.363         -29.39          85.89          76.38          19.04          26.51
   0.02513              -11.47         -3.388           49.3          31.89         -13.02          6.362          -29.4          85.88          76.39          19.04           26.5
   0.05026              -11.47         -3.385           49.3          31.89         -13.02          6.361         -29.42          85.87           76.4          19.04           26.5
    0.0754              -11.48         -3.382          49.31           31.9         -13.02          6.359         -29.43          85.85          76.41          19.05           26.5
    0.1005              -11.49         -3.379          49.31          31.91         -13.01          6.358         -29.45          85.84          76.42          19.05           26.5
    0.1257               -11.5         -3.376          49.32          31.91         -13.01          6.356         -29.47          85.83          76.44          19.06           26.5
    0.1508              -11.51         -3.372          49.32          31.92         -13.01          6.355         -29.48          85.81          76.45          19.06           26.5
    0.1759              -11.52         -3.369          49.33          31.92         -13.01          6.353          -29.5           85.8          76.47          19.07          26.49
    0.2011              -11.53         -3.365          49.33          31.93         -13.01          6.351         -29.52          85.78          76.49          19.07          26.49
    0.2262              -11.54          -3.36          49.34          31.94          -13.0          6.349         -29.55          85.76          76.51          19.08          26.49
    0.2513              -11.55         -3.356          49.35          31.95          -13.0          6.347         -29.57          85.74          76.53          19.09          26.48
    0.2765              -11.57         -3.351          49.35          31.96          -13.0          6.345         -29.59          85.72          76.55          19.09          26.48
    0.3016              -11.58         -3.346          49.36          31.97         -12.99          6.342         -29.62           85.7          76.57           19.1          26.48
    0.3267               -11.6          -3.34          49.37          31.98         -12.99           6.34         -29.65          85.68           76.6          19.11          26.47
    0.3518              -11.62         -3.334          49.38          31.99         -12.99          6.337         -29.68          85.65          76.62          19.12          26.47
     0.377              -11.63         -3.327          49.39           32.0         -12.98          6.334         -29.72          85.62          76.65          19.13          26.47
    0.4021              -11.65          -3.32           49.4          32.02         -12.98           6.33         -29.76          85.59          76.68          19.14          26.46
    0.4272              -11.68         -3.312          49.41          32.03         -12.97          6.327          -29.8          85.56          76.72          19.15          26.46
    0.4524               -11.7         -3.303          49.42          32.05         -12.97          6.322         -29.84          85.52          76.76          19.17          26.45
    0.4775              -11.73         -3.293          49.44          32.07         -12.96          6.318         -29.89          85.48           76.8          19.18          26.44
    0.5026              -11.76         -3.283          49.45          32.09         -12.95          6.313         -29.95          85.44          76.84           19.2          26.44
    0.5278              -11.79         -3.271          49.47          32.11         -12.95          6.308         -30.01          85.39          76.89          19.22          26.43
    0.5529              -11.82         -3.259          49.49          32.13         -12.94          6.302         -30.07          85.33          76.95          19.23          26.42
     0.578              -11.86         -3.245          49.51          32.16         -12.93          6.295         -30.14          85.28          77.01          19.26          26.41
    0.6032              -11.91         -3.229          49.53          32.19         -12.92          6.288         -30.23          85.21          77.08          19.28           26.4
    0.6283              -11.95         -3.212          49.55          32.22         -12.91           6.28         -30.32          85.14          77.16          19.31          26.39
    0.6534              -12.01         -3.192          49.58          32.26         -12.89          6.271         -30.42          85.05          77.24          19.34          26.38
    0.6786              -12.07          -3.17          49.61           32.3         -12.88          6.261         -30.53          84.96          77.34          19.37          26.36
    0.7037              -12.14         -3.145          49.65          32.34         -12.86          6.249         -30.66          84.86          77.45          19.41          26.35
    0.7288              -12.22         -3.117          49.69           32.4         -12.85          6.236         -30.81          84.74          77.57          19.45          26.33
     0.754              -12.31         -3.085          49.74          32.46         -12.83          6.221         -30.97           84.6          77.71           19.5          26.31
    0.7791              -12.41         -3.048          49.79          32.53          -12.8          6.204         -31.16          84.45          77.87          19.56          26.28
    0.8042              -12.53         -3.005          49.85          32.61         -12.78          6.184         -31.39          84.27          78.06          19.62          26.26
    0.8294              -12.66         -2.956          49.92           32.7         -12.74          6.161         -31.64          84.06          78.27           19.7          26.23
    0.8545              -12.83         -2.898          50.01          32.81         -12.71          6.134         -31.94          83.81          78.53          19.78          26.19
    0.8796              -13.02         -2.829          50.11          32.94         -12.66          6.102          -32.3          83.52          78.83          19.89          26.14
    0.9048              -13.24         -2.748          50.23          33.09         -12.61          6.064         -32.72          83.18          79.18          20.01          26.09
    0.9299              -13.51          -2.65          50.37          33.27         -12.55          6.019         -33.22          82.77          79.61          20.16          26.03
     0.955              -13.84         -2.533          50.54           33.5         -12.47          5.964         -33.83          82.28          80.12          20.34          25.95
    0.9802              -14.24         -2.389          50.75          33.77         -12.38          5.897         -34.58          81.67          80.75          20.56          25.86
     1.005              -14.73         -2.211           51.0           34.1         -12.27          5.814          -35.5          80.92          81.53          20.83          25.74
      1.03              -15.35         -1.989          51.32          34.52         -12.12          5.711         -36.65          79.99           82.5          21.16           25.6
     1.056              -16.12          -1.71          51.73          35.04         -11.94          5.581          -38.1          78.81          83.72          21.59          25.42
